<mxfile host="Electron" modified="2023-04-13T08:35:33.490Z" agent="Mozilla/5.0 (X11; Linux x86_64) AppleWebKit/537.36 (KHTML, like Gecko) draw.io/21.1.2 Chrome/106.0.5249.199 Electron/21.4.3 Safari/537.36" etag="1uaRU6Lm7I-Pgz9HXRoL" version="21.1.2" type="device">
  <diagram name="PÃ¡gina-1" id="dO0B25YMHzrQxPA-nV3Z">
    <mxGraphModel dx="1247" dy="1848" grid="1" gridSize="10" guides="1" tooltips="1" connect="1" arrows="1" fold="1" page="1" pageScale="1" pageWidth="827" pageHeight="1169" math="0" shadow="0">
      <root>
        <mxCell id="0" />
        <mxCell id="1" parent="0" />
        <mxCell id="QBha_YutnYXKHaZcliDe-85" style="edgeStyle=orthogonalEdgeStyle;rounded=0;orthogonalLoop=1;jettySize=auto;html=1;exitX=0.5;exitY=0;exitDx=0;exitDy=0;entryX=0.5;entryY=1;entryDx=0;entryDy=0;" edge="1" parent="1" source="QBha_YutnYXKHaZcliDe-7" target="QBha_YutnYXKHaZcliDe-9">
          <mxGeometry relative="1" as="geometry" />
        </mxCell>
        <mxCell id="QBha_YutnYXKHaZcliDe-127" value="Depende" style="edgeLabel;html=1;align=center;verticalAlign=middle;resizable=0;points=[];" vertex="1" connectable="0" parent="QBha_YutnYXKHaZcliDe-85">
          <mxGeometry x="-0.3213" relative="1" as="geometry">
            <mxPoint as="offset" />
          </mxGeometry>
        </mxCell>
        <mxCell id="QBha_YutnYXKHaZcliDe-89" style="edgeStyle=orthogonalEdgeStyle;rounded=0;orthogonalLoop=1;jettySize=auto;html=1;exitX=0.5;exitY=1;exitDx=0;exitDy=0;" edge="1" parent="1" source="QBha_YutnYXKHaZcliDe-7" target="QBha_YutnYXKHaZcliDe-8">
          <mxGeometry relative="1" as="geometry" />
        </mxCell>
        <mxCell id="QBha_YutnYXKHaZcliDe-123" value="Depende" style="edgeLabel;html=1;align=center;verticalAlign=middle;resizable=0;points=[];" vertex="1" connectable="0" parent="QBha_YutnYXKHaZcliDe-89">
          <mxGeometry x="-0.3195" y="-1" relative="1" as="geometry">
            <mxPoint as="offset" />
          </mxGeometry>
        </mxCell>
        <mxCell id="QBha_YutnYXKHaZcliDe-103" style="edgeStyle=orthogonalEdgeStyle;rounded=0;orthogonalLoop=1;jettySize=auto;html=1;exitX=0;exitY=0.5;exitDx=0;exitDy=0;entryX=1;entryY=0.5;entryDx=0;entryDy=0;" edge="1" parent="1" source="QBha_YutnYXKHaZcliDe-7" target="QBha_YutnYXKHaZcliDe-102">
          <mxGeometry relative="1" as="geometry" />
        </mxCell>
        <mxCell id="QBha_YutnYXKHaZcliDe-129" value="Implementa" style="edgeLabel;html=1;align=center;verticalAlign=middle;resizable=0;points=[];" vertex="1" connectable="0" parent="QBha_YutnYXKHaZcliDe-103">
          <mxGeometry x="-0.22" y="2" relative="1" as="geometry">
            <mxPoint as="offset" />
          </mxGeometry>
        </mxCell>
        <mxCell id="QBha_YutnYXKHaZcliDe-7" value="SignUpController" style="rounded=0;whiteSpace=wrap;html=1;" vertex="1" parent="1">
          <mxGeometry x="510" y="555" width="120" height="60" as="geometry" />
        </mxCell>
        <mxCell id="QBha_YutnYXKHaZcliDe-8" value="AddAccount" style="rounded=0;whiteSpace=wrap;html=1;dashed=1;" vertex="1" parent="1">
          <mxGeometry x="510" y="670" width="120" height="60" as="geometry" />
        </mxCell>
        <mxCell id="QBha_YutnYXKHaZcliDe-9" value="Validation" style="rounded=0;whiteSpace=wrap;html=1;dashed=1;" vertex="1" parent="1">
          <mxGeometry x="510" y="440" width="120" height="60" as="geometry" />
        </mxCell>
        <mxCell id="QBha_YutnYXKHaZcliDe-48" style="edgeStyle=orthogonalEdgeStyle;rounded=0;orthogonalLoop=1;jettySize=auto;html=1;exitX=0.5;exitY=1;exitDx=0;exitDy=0;" edge="1" parent="1" source="QBha_YutnYXKHaZcliDe-13" target="QBha_YutnYXKHaZcliDe-9">
          <mxGeometry relative="1" as="geometry" />
        </mxCell>
        <mxCell id="QBha_YutnYXKHaZcliDe-135" value="Implementa" style="edgeLabel;html=1;align=center;verticalAlign=middle;resizable=0;points=[];" vertex="1" connectable="0" parent="QBha_YutnYXKHaZcliDe-48">
          <mxGeometry x="-0.2395" relative="1" as="geometry">
            <mxPoint as="offset" />
          </mxGeometry>
        </mxCell>
        <mxCell id="QBha_YutnYXKHaZcliDe-71" style="edgeStyle=orthogonalEdgeStyle;rounded=0;orthogonalLoop=1;jettySize=auto;html=1;exitX=0.5;exitY=0;exitDx=0;exitDy=0;entryX=0.5;entryY=1;entryDx=0;entryDy=0;" edge="1" parent="1" source="QBha_YutnYXKHaZcliDe-13" target="QBha_YutnYXKHaZcliDe-67">
          <mxGeometry relative="1" as="geometry" />
        </mxCell>
        <mxCell id="QBha_YutnYXKHaZcliDe-140" value="Depende" style="edgeLabel;html=1;align=center;verticalAlign=middle;resizable=0;points=[];" vertex="1" connectable="0" parent="QBha_YutnYXKHaZcliDe-71">
          <mxGeometry x="0.254" y="1" relative="1" as="geometry">
            <mxPoint as="offset" />
          </mxGeometry>
        </mxCell>
        <mxCell id="QBha_YutnYXKHaZcliDe-13" value="PasswordValidation" style="rounded=0;whiteSpace=wrap;html=1;" vertex="1" parent="1">
          <mxGeometry x="510" y="310" width="120" height="60" as="geometry" />
        </mxCell>
        <mxCell id="QBha_YutnYXKHaZcliDe-45" style="edgeStyle=orthogonalEdgeStyle;rounded=0;orthogonalLoop=1;jettySize=auto;html=1;exitX=0.5;exitY=1;exitDx=0;exitDy=0;entryX=0.25;entryY=0;entryDx=0;entryDy=0;" edge="1" parent="1" source="QBha_YutnYXKHaZcliDe-15" target="QBha_YutnYXKHaZcliDe-9">
          <mxGeometry relative="1" as="geometry" />
        </mxCell>
        <mxCell id="QBha_YutnYXKHaZcliDe-136" value="Implementa" style="edgeLabel;html=1;align=center;verticalAlign=middle;resizable=0;points=[];" vertex="1" connectable="0" parent="QBha_YutnYXKHaZcliDe-45">
          <mxGeometry x="-0.3778" relative="1" as="geometry">
            <mxPoint as="offset" />
          </mxGeometry>
        </mxCell>
        <mxCell id="QBha_YutnYXKHaZcliDe-70" style="edgeStyle=orthogonalEdgeStyle;rounded=0;orthogonalLoop=1;jettySize=auto;html=1;exitX=0.5;exitY=0;exitDx=0;exitDy=0;entryX=0.5;entryY=1;entryDx=0;entryDy=0;" edge="1" parent="1" source="QBha_YutnYXKHaZcliDe-15" target="QBha_YutnYXKHaZcliDe-68">
          <mxGeometry relative="1" as="geometry" />
        </mxCell>
        <mxCell id="QBha_YutnYXKHaZcliDe-141" value="Depende" style="edgeLabel;html=1;align=center;verticalAlign=middle;resizable=0;points=[];" vertex="1" connectable="0" parent="QBha_YutnYXKHaZcliDe-70">
          <mxGeometry x="0.2413" relative="1" as="geometry">
            <mxPoint as="offset" />
          </mxGeometry>
        </mxCell>
        <mxCell id="QBha_YutnYXKHaZcliDe-15" value="EmailValidation" style="rounded=0;whiteSpace=wrap;html=1;" vertex="1" parent="1">
          <mxGeometry x="340" y="310" width="120" height="60" as="geometry" />
        </mxCell>
        <mxCell id="QBha_YutnYXKHaZcliDe-73" style="edgeStyle=orthogonalEdgeStyle;rounded=0;orthogonalLoop=1;jettySize=auto;html=1;exitX=0.25;exitY=1;exitDx=0;exitDy=0;entryX=0.75;entryY=0;entryDx=0;entryDy=0;" edge="1" parent="1" source="QBha_YutnYXKHaZcliDe-24" target="QBha_YutnYXKHaZcliDe-15">
          <mxGeometry relative="1" as="geometry" />
        </mxCell>
        <mxCell id="QBha_YutnYXKHaZcliDe-139" value="Depende" style="edgeLabel;html=1;align=center;verticalAlign=middle;resizable=0;points=[];" vertex="1" connectable="0" parent="QBha_YutnYXKHaZcliDe-73">
          <mxGeometry x="-0.8479" relative="1" as="geometry">
            <mxPoint as="offset" />
          </mxGeometry>
        </mxCell>
        <mxCell id="QBha_YutnYXKHaZcliDe-74" style="edgeStyle=orthogonalEdgeStyle;rounded=0;orthogonalLoop=1;jettySize=auto;html=1;entryX=0.75;entryY=0;entryDx=0;entryDy=0;" edge="1" parent="1" source="QBha_YutnYXKHaZcliDe-24" target="QBha_YutnYXKHaZcliDe-13">
          <mxGeometry relative="1" as="geometry">
            <Array as="points">
              <mxPoint x="780" y="290" />
              <mxPoint x="600" y="290" />
            </Array>
          </mxGeometry>
        </mxCell>
        <mxCell id="QBha_YutnYXKHaZcliDe-138" value="Depende" style="edgeLabel;html=1;align=center;verticalAlign=middle;resizable=0;points=[];" vertex="1" connectable="0" parent="QBha_YutnYXKHaZcliDe-74">
          <mxGeometry x="-0.656" y="2" relative="1" as="geometry">
            <mxPoint as="offset" />
          </mxGeometry>
        </mxCell>
        <mxCell id="QBha_YutnYXKHaZcliDe-75" style="edgeStyle=orthogonalEdgeStyle;rounded=0;orthogonalLoop=1;jettySize=auto;html=1;exitX=0.75;exitY=1;exitDx=0;exitDy=0;entryX=0.929;entryY=0;entryDx=0;entryDy=0;entryPerimeter=0;" edge="1" parent="1" source="QBha_YutnYXKHaZcliDe-24" target="QBha_YutnYXKHaZcliDe-14">
          <mxGeometry relative="1" as="geometry" />
        </mxCell>
        <mxCell id="QBha_YutnYXKHaZcliDe-137" value="Depende" style="edgeLabel;html=1;align=center;verticalAlign=middle;resizable=0;points=[];" vertex="1" connectable="0" parent="QBha_YutnYXKHaZcliDe-75">
          <mxGeometry x="-0.264" y="1" relative="1" as="geometry">
            <mxPoint as="offset" />
          </mxGeometry>
        </mxCell>
        <mxCell id="QBha_YutnYXKHaZcliDe-76" style="edgeStyle=orthogonalEdgeStyle;rounded=0;orthogonalLoop=1;jettySize=auto;html=1;exitX=1;exitY=0.5;exitDx=0;exitDy=0;entryX=1;entryY=0.5;entryDx=0;entryDy=0;" edge="1" parent="1" source="QBha_YutnYXKHaZcliDe-24" target="QBha_YutnYXKHaZcliDe-9">
          <mxGeometry relative="1" as="geometry" />
        </mxCell>
        <mxCell id="QBha_YutnYXKHaZcliDe-144" value="Implementa" style="edgeLabel;html=1;align=center;verticalAlign=middle;resizable=0;points=[];" vertex="1" connectable="0" parent="QBha_YutnYXKHaZcliDe-76">
          <mxGeometry x="-0.1655" relative="1" as="geometry">
            <mxPoint as="offset" />
          </mxGeometry>
        </mxCell>
        <mxCell id="QBha_YutnYXKHaZcliDe-24" value="ValidationComposite" style="rounded=0;whiteSpace=wrap;html=1;" vertex="1" parent="1">
          <mxGeometry x="720" y="170" width="120" height="60" as="geometry" />
        </mxCell>
        <mxCell id="QBha_YutnYXKHaZcliDe-49" style="edgeStyle=orthogonalEdgeStyle;rounded=0;orthogonalLoop=1;jettySize=auto;html=1;exitX=0.5;exitY=1;exitDx=0;exitDy=0;entryX=0.75;entryY=0;entryDx=0;entryDy=0;" edge="1" parent="1" source="QBha_YutnYXKHaZcliDe-14" target="QBha_YutnYXKHaZcliDe-9">
          <mxGeometry relative="1" as="geometry" />
        </mxCell>
        <mxCell id="QBha_YutnYXKHaZcliDe-134" value="Implementa" style="edgeLabel;html=1;align=center;verticalAlign=middle;resizable=0;points=[];" vertex="1" connectable="0" parent="QBha_YutnYXKHaZcliDe-49">
          <mxGeometry x="-0.2706" y="4" relative="1" as="geometry">
            <mxPoint as="offset" />
          </mxGeometry>
        </mxCell>
        <mxCell id="QBha_YutnYXKHaZcliDe-14" value="RequiredFieldsValidation" style="rounded=0;whiteSpace=wrap;html=1;" vertex="1" parent="1">
          <mxGeometry x="680" y="310" width="140" height="60" as="geometry" />
        </mxCell>
        <mxCell id="QBha_YutnYXKHaZcliDe-67" value="PasswordValidator" style="rounded=0;whiteSpace=wrap;html=1;dashed=1;" vertex="1" parent="1">
          <mxGeometry x="510" y="160" width="120" height="60" as="geometry" />
        </mxCell>
        <mxCell id="QBha_YutnYXKHaZcliDe-68" value="EmailValidator" style="rounded=0;whiteSpace=wrap;html=1;dashed=1;" vertex="1" parent="1">
          <mxGeometry x="340" y="160" width="120" height="60" as="geometry" />
        </mxCell>
        <mxCell id="QBha_YutnYXKHaZcliDe-81" style="edgeStyle=orthogonalEdgeStyle;rounded=0;orthogonalLoop=1;jettySize=auto;html=1;exitX=0.5;exitY=1;exitDx=0;exitDy=0;entryX=0.5;entryY=0;entryDx=0;entryDy=0;" edge="1" parent="1" source="QBha_YutnYXKHaZcliDe-77" target="QBha_YutnYXKHaZcliDe-68">
          <mxGeometry relative="1" as="geometry" />
        </mxCell>
        <mxCell id="QBha_YutnYXKHaZcliDe-143" value="Implementa" style="edgeLabel;html=1;align=center;verticalAlign=middle;resizable=0;points=[];" vertex="1" connectable="0" parent="QBha_YutnYXKHaZcliDe-81">
          <mxGeometry x="-0.1964" y="1" relative="1" as="geometry">
            <mxPoint as="offset" />
          </mxGeometry>
        </mxCell>
        <mxCell id="QBha_YutnYXKHaZcliDe-83" style="edgeStyle=orthogonalEdgeStyle;rounded=0;orthogonalLoop=1;jettySize=auto;html=1;exitX=0.5;exitY=0;exitDx=0;exitDy=0;entryX=0;entryY=0.5;entryDx=0;entryDy=0;" edge="1" parent="1" source="QBha_YutnYXKHaZcliDe-77" target="QBha_YutnYXKHaZcliDe-82">
          <mxGeometry relative="1" as="geometry" />
        </mxCell>
        <mxCell id="QBha_YutnYXKHaZcliDe-147" value="Depende" style="edgeLabel;html=1;align=center;verticalAlign=middle;resizable=0;points=[];" vertex="1" connectable="0" parent="QBha_YutnYXKHaZcliDe-83">
          <mxGeometry x="-0.7161" relative="1" as="geometry">
            <mxPoint as="offset" />
          </mxGeometry>
        </mxCell>
        <mxCell id="QBha_YutnYXKHaZcliDe-77" value="EmailValidatorAdapter" style="rounded=0;whiteSpace=wrap;html=1;" vertex="1" parent="1">
          <mxGeometry x="310" y="40" width="140" height="60" as="geometry" />
        </mxCell>
        <mxCell id="QBha_YutnYXKHaZcliDe-80" style="edgeStyle=orthogonalEdgeStyle;rounded=0;orthogonalLoop=1;jettySize=auto;html=1;exitX=0.5;exitY=1;exitDx=0;exitDy=0;" edge="1" parent="1" source="QBha_YutnYXKHaZcliDe-78" target="QBha_YutnYXKHaZcliDe-67">
          <mxGeometry relative="1" as="geometry" />
        </mxCell>
        <mxCell id="QBha_YutnYXKHaZcliDe-142" value="Implementa" style="edgeLabel;html=1;align=center;verticalAlign=middle;resizable=0;points=[];" vertex="1" connectable="0" parent="QBha_YutnYXKHaZcliDe-80">
          <mxGeometry x="-0.375" y="-2" relative="1" as="geometry">
            <mxPoint as="offset" />
          </mxGeometry>
        </mxCell>
        <mxCell id="QBha_YutnYXKHaZcliDe-84" style="edgeStyle=orthogonalEdgeStyle;rounded=0;orthogonalLoop=1;jettySize=auto;html=1;exitX=0.5;exitY=0;exitDx=0;exitDy=0;entryX=1;entryY=0.5;entryDx=0;entryDy=0;" edge="1" parent="1" source="QBha_YutnYXKHaZcliDe-78" target="QBha_YutnYXKHaZcliDe-82">
          <mxGeometry relative="1" as="geometry" />
        </mxCell>
        <mxCell id="QBha_YutnYXKHaZcliDe-146" value="Depende" style="edgeLabel;html=1;align=center;verticalAlign=middle;resizable=0;points=[];" vertex="1" connectable="0" parent="QBha_YutnYXKHaZcliDe-84">
          <mxGeometry x="-0.6388" relative="1" as="geometry">
            <mxPoint as="offset" />
          </mxGeometry>
        </mxCell>
        <mxCell id="QBha_YutnYXKHaZcliDe-78" value="PasswordValidatorAdapter" style="rounded=0;whiteSpace=wrap;html=1;" vertex="1" parent="1">
          <mxGeometry x="510" y="40" width="160" height="60" as="geometry" />
        </mxCell>
        <mxCell id="QBha_YutnYXKHaZcliDe-82" value="Validator" style="rounded=0;whiteSpace=wrap;html=1;" vertex="1" parent="1">
          <mxGeometry x="430" y="-90" width="120" height="60" as="geometry" />
        </mxCell>
        <mxCell id="QBha_YutnYXKHaZcliDe-88" style="edgeStyle=orthogonalEdgeStyle;rounded=0;orthogonalLoop=1;jettySize=auto;html=1;exitX=0.5;exitY=0;exitDx=0;exitDy=0;entryX=0.5;entryY=1;entryDx=0;entryDy=0;" edge="1" parent="1" source="QBha_YutnYXKHaZcliDe-87" target="QBha_YutnYXKHaZcliDe-8">
          <mxGeometry relative="1" as="geometry">
            <Array as="points">
              <mxPoint x="570" y="770" />
              <mxPoint x="570" y="770" />
            </Array>
          </mxGeometry>
        </mxCell>
        <mxCell id="QBha_YutnYXKHaZcliDe-122" value="Implementa" style="edgeLabel;html=1;align=center;verticalAlign=middle;resizable=0;points=[];" vertex="1" connectable="0" parent="QBha_YutnYXKHaZcliDe-88">
          <mxGeometry x="-0.1429" relative="1" as="geometry">
            <mxPoint as="offset" />
          </mxGeometry>
        </mxCell>
        <mxCell id="QBha_YutnYXKHaZcliDe-112" style="edgeStyle=orthogonalEdgeStyle;rounded=0;orthogonalLoop=1;jettySize=auto;html=1;exitX=0.75;exitY=1;exitDx=0;exitDy=0;entryX=0.5;entryY=0;entryDx=0;entryDy=0;" edge="1" parent="1" source="QBha_YutnYXKHaZcliDe-87" target="QBha_YutnYXKHaZcliDe-90">
          <mxGeometry relative="1" as="geometry" />
        </mxCell>
        <mxCell id="QBha_YutnYXKHaZcliDe-115" value="Depende" style="edgeLabel;html=1;align=center;verticalAlign=middle;resizable=0;points=[];" vertex="1" connectable="0" parent="QBha_YutnYXKHaZcliDe-112">
          <mxGeometry x="-0.15" y="1" relative="1" as="geometry">
            <mxPoint as="offset" />
          </mxGeometry>
        </mxCell>
        <mxCell id="QBha_YutnYXKHaZcliDe-113" style="edgeStyle=orthogonalEdgeStyle;rounded=0;orthogonalLoop=1;jettySize=auto;html=1;exitX=0.25;exitY=1;exitDx=0;exitDy=0;entryX=0.5;entryY=0;entryDx=0;entryDy=0;" edge="1" parent="1" source="QBha_YutnYXKHaZcliDe-87" target="QBha_YutnYXKHaZcliDe-91">
          <mxGeometry relative="1" as="geometry" />
        </mxCell>
        <mxCell id="QBha_YutnYXKHaZcliDe-116" value="Depende" style="edgeLabel;html=1;align=center;verticalAlign=middle;resizable=0;points=[];" vertex="1" connectable="0" parent="QBha_YutnYXKHaZcliDe-113">
          <mxGeometry x="-0.2111" relative="1" as="geometry">
            <mxPoint as="offset" />
          </mxGeometry>
        </mxCell>
        <mxCell id="QBha_YutnYXKHaZcliDe-87" value="DbAddAccount" style="rounded=0;whiteSpace=wrap;html=1;" vertex="1" parent="1">
          <mxGeometry x="510" y="790" width="120" height="60" as="geometry" />
        </mxCell>
        <mxCell id="QBha_YutnYXKHaZcliDe-90" value="Encrypter" style="rounded=0;whiteSpace=wrap;html=1;dashed=1;" vertex="1" parent="1">
          <mxGeometry x="630" y="920" width="120" height="60" as="geometry" />
        </mxCell>
        <mxCell id="QBha_YutnYXKHaZcliDe-91" value="AddAccountRepository" style="rounded=0;whiteSpace=wrap;html=1;dashed=1;" vertex="1" parent="1">
          <mxGeometry x="360" y="920" width="140" height="60" as="geometry" />
        </mxCell>
        <mxCell id="QBha_YutnYXKHaZcliDe-95" style="edgeStyle=orthogonalEdgeStyle;rounded=0;orthogonalLoop=1;jettySize=auto;html=1;entryX=0.5;entryY=1;entryDx=0;entryDy=0;" edge="1" parent="1" source="QBha_YutnYXKHaZcliDe-94" target="QBha_YutnYXKHaZcliDe-90">
          <mxGeometry relative="1" as="geometry" />
        </mxCell>
        <mxCell id="QBha_YutnYXKHaZcliDe-121" value="Implementa" style="edgeLabel;html=1;align=center;verticalAlign=middle;resizable=0;points=[];" vertex="1" connectable="0" parent="QBha_YutnYXKHaZcliDe-95">
          <mxGeometry x="-0.26" relative="1" as="geometry">
            <mxPoint as="offset" />
          </mxGeometry>
        </mxCell>
        <mxCell id="QBha_YutnYXKHaZcliDe-101" style="edgeStyle=orthogonalEdgeStyle;rounded=0;orthogonalLoop=1;jettySize=auto;html=1;exitX=0.5;exitY=1;exitDx=0;exitDy=0;" edge="1" parent="1" source="QBha_YutnYXKHaZcliDe-94" target="QBha_YutnYXKHaZcliDe-100">
          <mxGeometry relative="1" as="geometry" />
        </mxCell>
        <mxCell id="QBha_YutnYXKHaZcliDe-120" value="Depende" style="edgeLabel;html=1;align=center;verticalAlign=middle;resizable=0;points=[];" vertex="1" connectable="0" parent="QBha_YutnYXKHaZcliDe-101">
          <mxGeometry x="0.1768" y="1" relative="1" as="geometry">
            <mxPoint as="offset" />
          </mxGeometry>
        </mxCell>
        <mxCell id="QBha_YutnYXKHaZcliDe-94" value="BcryptAdapter" style="rounded=0;whiteSpace=wrap;html=1;" vertex="1" parent="1">
          <mxGeometry x="630" y="1040" width="120" height="60" as="geometry" />
        </mxCell>
        <mxCell id="QBha_YutnYXKHaZcliDe-97" style="edgeStyle=orthogonalEdgeStyle;rounded=0;orthogonalLoop=1;jettySize=auto;html=1;exitX=0.5;exitY=0;exitDx=0;exitDy=0;entryX=0.5;entryY=1;entryDx=0;entryDy=0;" edge="1" parent="1" source="QBha_YutnYXKHaZcliDe-96" target="QBha_YutnYXKHaZcliDe-91">
          <mxGeometry relative="1" as="geometry" />
        </mxCell>
        <mxCell id="QBha_YutnYXKHaZcliDe-117" value="Implementa" style="edgeLabel;html=1;align=center;verticalAlign=middle;resizable=0;points=[];" vertex="1" connectable="0" parent="QBha_YutnYXKHaZcliDe-97">
          <mxGeometry x="-0.18" y="-2" relative="1" as="geometry">
            <mxPoint as="offset" />
          </mxGeometry>
        </mxCell>
        <mxCell id="QBha_YutnYXKHaZcliDe-99" style="edgeStyle=orthogonalEdgeStyle;rounded=0;orthogonalLoop=1;jettySize=auto;html=1;exitX=0.5;exitY=1;exitDx=0;exitDy=0;" edge="1" parent="1" source="QBha_YutnYXKHaZcliDe-96" target="QBha_YutnYXKHaZcliDe-98">
          <mxGeometry relative="1" as="geometry" />
        </mxCell>
        <mxCell id="QBha_YutnYXKHaZcliDe-118" value="Depende" style="edgeLabel;html=1;align=center;verticalAlign=middle;resizable=0;points=[];" vertex="1" connectable="0" parent="QBha_YutnYXKHaZcliDe-99">
          <mxGeometry x="0.258" relative="1" as="geometry">
            <mxPoint as="offset" />
          </mxGeometry>
        </mxCell>
        <mxCell id="QBha_YutnYXKHaZcliDe-96" value="AddAccountMongoRepository" style="rounded=0;whiteSpace=wrap;html=1;" vertex="1" parent="1">
          <mxGeometry x="340" y="1040" width="180" height="60" as="geometry" />
        </mxCell>
        <mxCell id="QBha_YutnYXKHaZcliDe-98" value="mongodb" style="rounded=0;whiteSpace=wrap;html=1;" vertex="1" parent="1">
          <mxGeometry x="370" y="1169" width="120" height="60" as="geometry" />
        </mxCell>
        <mxCell id="QBha_YutnYXKHaZcliDe-100" value="bcrypt" style="rounded=0;whiteSpace=wrap;html=1;" vertex="1" parent="1">
          <mxGeometry x="630" y="1169" width="120" height="60" as="geometry" />
        </mxCell>
        <mxCell id="QBha_YutnYXKHaZcliDe-102" value="Controller" style="rounded=0;whiteSpace=wrap;html=1;dashed=1;" vertex="1" parent="1">
          <mxGeometry x="290" y="555" width="120" height="60" as="geometry" />
        </mxCell>
        <mxCell id="QBha_YutnYXKHaZcliDe-105" style="edgeStyle=orthogonalEdgeStyle;rounded=0;orthogonalLoop=1;jettySize=auto;html=1;exitX=1;exitY=0.5;exitDx=0;exitDy=0;entryX=0;entryY=0.5;entryDx=0;entryDy=0;" edge="1" parent="1" source="QBha_YutnYXKHaZcliDe-104" target="QBha_YutnYXKHaZcliDe-102">
          <mxGeometry relative="1" as="geometry" />
        </mxCell>
        <mxCell id="QBha_YutnYXKHaZcliDe-130" value="Implementa&lt;br&gt;e Depende" style="edgeLabel;html=1;align=center;verticalAlign=middle;resizable=0;points=[];" vertex="1" connectable="0" parent="QBha_YutnYXKHaZcliDe-105">
          <mxGeometry x="-0.2" y="-3" relative="1" as="geometry">
            <mxPoint as="offset" />
          </mxGeometry>
        </mxCell>
        <mxCell id="QBha_YutnYXKHaZcliDe-107" style="edgeStyle=orthogonalEdgeStyle;rounded=0;orthogonalLoop=1;jettySize=auto;html=1;exitX=0.5;exitY=1;exitDx=0;exitDy=0;" edge="1" parent="1" source="QBha_YutnYXKHaZcliDe-104" target="QBha_YutnYXKHaZcliDe-106">
          <mxGeometry relative="1" as="geometry" />
        </mxCell>
        <mxCell id="QBha_YutnYXKHaZcliDe-131" value="Depende" style="edgeLabel;html=1;align=center;verticalAlign=middle;resizable=0;points=[];" vertex="1" connectable="0" parent="QBha_YutnYXKHaZcliDe-107">
          <mxGeometry x="0.1503" y="-1" relative="1" as="geometry">
            <mxPoint as="offset" />
          </mxGeometry>
        </mxCell>
        <mxCell id="QBha_YutnYXKHaZcliDe-104" value="LoggingControllerDecorator" style="rounded=0;whiteSpace=wrap;html=1;" vertex="1" parent="1">
          <mxGeometry x="30" y="555" width="160" height="60" as="geometry" />
        </mxCell>
        <mxCell id="QBha_YutnYXKHaZcliDe-106" value="LoggingRepository" style="rounded=0;whiteSpace=wrap;html=1;dashed=1;" vertex="1" parent="1">
          <mxGeometry x="35" y="670" width="150" height="60" as="geometry" />
        </mxCell>
        <mxCell id="QBha_YutnYXKHaZcliDe-110" style="edgeStyle=orthogonalEdgeStyle;rounded=0;orthogonalLoop=1;jettySize=auto;html=1;exitX=0.5;exitY=0;exitDx=0;exitDy=0;entryX=0.5;entryY=1;entryDx=0;entryDy=0;" edge="1" parent="1" source="QBha_YutnYXKHaZcliDe-108" target="QBha_YutnYXKHaZcliDe-106">
          <mxGeometry relative="1" as="geometry" />
        </mxCell>
        <mxCell id="QBha_YutnYXKHaZcliDe-132" value="Implementa" style="edgeLabel;html=1;align=center;verticalAlign=middle;resizable=0;points=[];" vertex="1" connectable="0" parent="QBha_YutnYXKHaZcliDe-110">
          <mxGeometry x="-0.235" y="-1" relative="1" as="geometry">
            <mxPoint as="offset" />
          </mxGeometry>
        </mxCell>
        <mxCell id="QBha_YutnYXKHaZcliDe-114" style="edgeStyle=orthogonalEdgeStyle;rounded=0;orthogonalLoop=1;jettySize=auto;html=1;exitX=0.5;exitY=1;exitDx=0;exitDy=0;entryX=0;entryY=0.5;entryDx=0;entryDy=0;" edge="1" parent="1" source="QBha_YutnYXKHaZcliDe-108" target="QBha_YutnYXKHaZcliDe-98">
          <mxGeometry relative="1" as="geometry" />
        </mxCell>
        <mxCell id="QBha_YutnYXKHaZcliDe-133" value="Depende" style="edgeLabel;html=1;align=center;verticalAlign=middle;resizable=0;points=[];" vertex="1" connectable="0" parent="QBha_YutnYXKHaZcliDe-114">
          <mxGeometry x="-0.4248" y="-1" relative="1" as="geometry">
            <mxPoint as="offset" />
          </mxGeometry>
        </mxCell>
        <mxCell id="QBha_YutnYXKHaZcliDe-108" value="LoggingMongoRepository" style="rounded=0;whiteSpace=wrap;html=1;" vertex="1" parent="1">
          <mxGeometry x="35" y="810" width="150" height="60" as="geometry" />
        </mxCell>
      </root>
    </mxGraphModel>
  </diagram>
</mxfile>
